<svg xmlns="http://www.w3.org/2000/svg" width="32" height="32" viewBox="0 0 32 32"><g transform="translate(0 -1020.362)"><path fill="#d2dce9" d="m 5.00002,1030.3622 21.99996,0 c 1.108011,0 2.00002,0.892 2.00002,2 l 0,14 c 0,1.108 -0.892009,2 -2.00002,2 l -21.99996,0 c -1.1080111,0 -2.00002,-0.892 -2.00002,-2 l 0,-14 c 0,-1.108 0.8920089,-2 2.00002,-2 z"/><path fill="#0c5286" d="m 5.0000174,1025.3622 21.9999656,0 c 1.108009,0 2.000017,0.892 2.000017,2 l 0,1 c 0,1.108 -0.892008,2 -2.000017,2 l -21.9999656,0 C 3.8920078,1030.3622 3,1029.4702 3,1028.3622 l 0,-1 c 0,-1.108 0.8920078,-2 2.0000174,-2 z"/><path style="isolation:auto;mix-blend-mode:normal" fill="#d2dce9" d="m 29.00556,1030.3622 0,13 -26.00018,0 0,-13 z" color="#000" overflow="visible"/><path fill="#0c5286" d="m 3.00001,1030.3622 0,-3 26.01082,0 0,3"/><path fill="#d2dce9" d="M10 1027.865a1.4973145 1.4973145 0 0 1-1.4973145 1.4973 1.4973145 1.4973145 0 0 1-1.4973144-1.4973 1.4973145 1.4973145 0 0 1 1.4973144-1.4973A1.4973145 1.4973145 0 0 1 10 1027.865zM25.000015 1027.865a1.4972687 1.4972687 0 0 1-1.497268 1.4973 1.4972687 1.4972687 0 0 1-1.497269-1.4973 1.4972687 1.4972687 0 0 1 1.497269-1.4973 1.4972687 1.4972687 0 0 1 1.497268 1.4973z"/><path style="line-height:normal;text-indent:0;text-align:start;text-decoration-line:none;text-decoration-style:solid;text-decoration-color:#000;text-transform:none;block-progression:tb;isolation:auto;mix-blend-mode:normal" fill="#8fb6d7" fill-rule="evenodd" d="M8.4960938 1023.3477a.50005.50005 0 0 0-.4941407.5078l0 4a.50005.50005 0 1 0 1 0l0-4a.50005.50005 0 0 0-.5058593-.5078zM23.496094 1023.3477a.50005.50005 0 0 0-.494141.5078l0 4a.50005.50005 0 1 0 1 0l0-4a.50005.50005 0 0 0-.505859-.5078z" color="#000" font-family="sans-serif" font-weight="400" overflow="visible"/><path fill="#ee7581" d="M5.0054626 1044.3622l1.9999099 0 0 1.9999-1.9999099 0zM9.0053711 1044.3622l1.9999099 0 0 1.9999-1.9999099 0zM5.0054626 1040.3622l1.9999099 0 0 1.9999-1.9999099 0zM9.0053711 1040.3622l1.9999099 0 0 1.9999-1.9999099 0zM17.005371 1040.3622l1.99991 0 0 1.9999-1.99991 0zM21.005371 1040.3622l1.99991 0 0 1.9999-1.99991 0zM25.005371 1040.3622l1.99991 0 0 1.9999-1.99991 0zM5.0054626 1036.3622l1.9999099 0 0 1.9999-1.9999099 0zM9.0053711 1036.3622l1.9999099 0 0 1.9999-1.9999099 0zM13.005371 1036.3622l1.99991 0 0 1.9999-1.99991 0zM17.005371 1036.3622l1.99991 0 0 1.9999-1.99991 0zM25.005371 1036.3622l1.99991 0 0 1.9999-1.99991 0zM13.005371 1032.3622l1.99991 0 0 1.9999-1.99991 0zM17.005371 1032.3622l1.99991 0 0 1.9999-1.99991 0zM21.005371 1032.3622l1.99991 0 0 1.9999-1.99991 0zM25.005371 1032.3622l1.99991 0 0 1.9999-1.99991 0z"/><path style="line-height:normal;text-indent:0;text-align:start;text-decoration-line:none;text-decoration-style:solid;text-decoration-color:#000;text-transform:none;block-progression:tb;isolation:auto;mix-blend-mode:normal" fill="#2dbca4" fill-rule="evenodd" d="M14.994141 1040.543a.50005.50005 0 0 0-.345703.1484l-.97461.9668-.3125-.3086a.50005.50005 0 1 0-.703125.7109l.664063.6563a.50005.50005 0 0 0 .703125 0l1.326171-1.3145a.50005.50005 0 0 0-.357421-.8593zM22.994141 1036.5449a.50005.50005 0 0 0-.34375.1485l-.976563.9648-.3125-.3086a.50005.50005 0 1 0-.703125.7109l.664063.6563a.50005.50005 0 0 0 .703125 0l1.328125-1.3125a.50005.50005 0 0 0-.359375-.8594zM10.992188 1032.5449a.50005.50005 0 0 0-.34375.1485l-.9746099.9648-.3125-.3086a.50005.50005 0 1 0-.703125.7109l.6640625.6563a.50005.50005 0 0 0 .7031254 0l1.326171-1.3125a.50005.50005 0 0 0-.359374-.8594z" color="#000" font-family="sans-serif" font-weight="400" overflow="visible"/><path fill="#406b95" d="M5.5054321 1032.8622l1 0 0 1-1 0zM13.505432 1044.8622l1 0 0 1-1 0zM17.505432 1044.8622l1 0 0 1-1 0zM21.505432 1044.8622l1 0 0 1-1 0zM25.505432 1044.8622l1 0 0 1-1 0z"/></g></svg>